<?xml version="1.0" encoding="UTF-8"?>
<svg xmlns="http://www.w3.org/2000/svg" width="800" height="600" viewBox="0 0 800 600">
  <defs>
    <style>
      .track-path { fill: none; stroke: #3b82f6; stroke-width: 2; }
      .start-point { fill: #10b981; r: 4; }
      .end-point { fill: #ef4444; r: 4; }
      .grid { stroke: #e5e7eb; stroke-width: 0.5; }
      .label { font-family: monospace; font-size: 12px; fill: #666; }
    </style>
  </defs>

  <!-- Grid -->
  <line class="grid" x1="0" y1="0" x2="800" y2="0" />
  <line class="grid" x1="0" y1="0" x2="0" y2="600" />
  <line class="grid" x1="800" y1="0" x2="800" y2="600" />
  <line class="grid" x1="0" y1="600" x2="800" y2="600" />

  <!-- Raw telemetry path -->
  <polyline class="track-path" points="406.51,312.76 406.51,312.76 406.51,312.76 406.51,312.76 406.51,312.76 406.51,312.76 406.51,312.76 406.51,312.76 406.51,312.76 406.51,312.76 406.51,312.76 406.51,312.76 406.51,312.76 406.51,312.76 406.51,312.76 406.51,312.76 406.51,312.76 406.51,312.76 294.78,507.77 294.78,507.77 294.76,507.77 294.76,507.77 294.76,507.77 294.76,507.77 294.76,507.77 294.76,507.77 294.76,507.77 294.76,507.77 294.76,507.77 294.76,507.77 294.76,507.77 294.76,507.77 294.76,507.77 294.76,507.77 294.76,507.77 294.76,507.77 294.76,507.77 294.76,507.77 294.76,507.77 294.76,507.77 294.76,507.77 294.76,507.77 294.76,507.77 294.76,507.77 294.76,507.77 294.76,507.77 294.76,507.77 294.76,507.77 294.76,507.77 294.76,507.77 294.76,507.77 294.76,507.77 294.76,507.77 294.76,507.77 294.76,507.77 294.76,507.77 294.76,507.77 294.76,507.77 294.76,507.77 294.76,507.77 294.76,507.77 294.76,507.77 294.76,507.77 294.76,507.77 294.76,507.77 294.76,507.77 294.76,507.77 294.76,507.77 294.76,507.77 294.76,507.77 294.76,507.77 294.76,507.77 294.76,507.77 294.76,507.77 294.76,507.77 294.76,507.77 294.76,507.77 294.76,507.77 294.76,507.77 294.76,507.77 294.76,507.77 294.76,507.77 294.76,507.77 294.76,507.77 294.76,507.77 294.76,507.77 294.76,507.77 294.76,507.77 294.76,507.77 294.76,507.77 294.76,507.77 294.76,507.77 294.76,507.77 294.76,507.77 294.76,507.77 294.76,507.77 294.76,507.77 294.76,507.77 294.76,507.77 294.76,507.77 294.76,507.77 294.76,507.77 294.76,507.77 294.76,507.77 294.80,507.78 294.94,507.82 295.22,507.91 295.59,508.03 296.08,508.20 296.61,508.37 297.28,508.60 298.07,508.86 299.05,509.18 300.00,509.48 301.19,509.85 302.58,510.28 304.18,510.76 305.63,511.19 307.41,511.70 309.18,512.17 311.12,512.66 312.85,513.07 314.90,513.55 316.78,513.99 318.91,514.52 320.73,515.00 322.54,515.51 324.55,516.10 326.87,516.84 328.93,517.51 331.26,518.27 333.85,519.11 336.95,520.13 339.77,521.07 342.49,522.03 345.67,523.16 349.44,524.51 352.22,525.49 355.88,526.78 359.25,527.97 363.43,529.45 366.78,530.65 370.73,532.07 374.49,533.42 378.99,535.03 382.86,536.39 386.93,537.79 391.61,539.35 396.69,540.95 401.50,542.36 406.29,543.62 410.85,544.71 415.73,545.78 421.68,546.88 426.86,547.68 431.74,548.31 437.19,548.85 443.34,549.23 448.24,549.35 452.54,549.32 457.51,549.13 462.44,548.78 466.97,548.32 470.54,547.83 474.72,547.09 479.32,546.10 483.28,545.08 487.25,543.88 491.36,542.46 496.08,540.59 500.06,538.85 503.79,537.13 507.80,535.08 511.83,532.78 515.23,530.61 518.08,528.57 521.33,525.97 524.46,523.08 526.63,520.86 529.63,517.39 531.87,514.33 533.64,511.36 534.92,508.60 536.00,505.48 536.94,501.86 537.63,498.14 538.01,495.01 538.32,491.49 538.53,487.55 538.65,483.84 538.73,480.51 538.77,476.77 538.77,472.25 538.73,468.06 538.66,464.69 538.54,460.82 538.34,456.53 538.06,452.52 537.74,448.94 537.31,444.86 536.79,440.44 536.26,436.21 535.77,432.43 535.20,428.14 534.54,423.47 533.95,419.49 533.39,416.09 532.73,412.50 531.97,408.84 531.23,405.75 530.56,403.25 529.74,400.57 528.79,397.90 527.87,395.61 527.08,393.87 526.08,391.89 524.86,389.79 523.61,387.99 522.47,386.64 520.81,384.97 518.73,383.23 516.50,381.69 514.10,380.32 511.71,379.21 508.60,378.09 506.03,377.38 503.43,376.86 500.73,376.50 497.58,376.29 495.09,376.29 492.93,376.42 490.26,376.79 487.54,377.41 485.35,378.08 483.23,378.90 480.98,379.98 478.68,381.35 476.74,382.76 475.16,384.14 473.58,385.80 472.11,387.77 471.02,389.69 470.29,391.47 469.73,393.50 469.43,395.57 469.35,397.91 469.45,399.91 469.70,402.21 470.13,404.84 470.53,407.29 470.84,409.54 471.22,412.17 471.76,415.44 472.28,418.21 472.78,420.76 473.39,423.95 473.94,427.18 474.41,430.74 474.71,434.66 474.79,438.11 474.70,441.69 474.44,444.94 473.94,448.51 473.20,452.07 472.20,455.66 470.69,459.89 469.36,463.09 467.78,466.39 466.15,469.40 464.26,472.44 462.65,474.76 460.74,477.23 458.73,479.54 456.50,481.80 454.84,483.32 452.64,485.18 450.48,486.82 447.83,488.58 445.39,489.97 442.49,491.42 439.25,492.88 435.72,494.20 432.62,495.15 429.20,495.98 425.57,496.68 421.11,497.31 417.56,497.65 413.44,497.89 409.24,497.93 404.63,497.77 401.17,497.48 396.43,496.94 392.16,496.34 387.80,495.71 383.76,495.09 379.18,494.31 374.25,493.38 369.14,492.39 364.83,491.57 360.06,490.66 355.19,489.77 349.74,488.77 345.18,487.92 339.67,486.83 334.70,485.79 329.06,484.56 323.79,483.34 318.52,482.04 313.33,480.67 306.95,478.92 302.19,477.60 296.75,476.07 288.88,473.80 283.87,472.32 276.75,470.16 271.78,468.62 266.34,466.90 259.60,464.77 253.82,462.94 248.80,461.36 242.98,459.50 237.65,457.75 232.69,456.09 228.77,454.73 224.76,453.27 220.78,451.71 217.04,450.15 214.00,448.87 210.78,447.47 206.82,445.62 203.59,443.90 200.62,442.13 197.30,439.89 194.58,437.84 192.20,435.84 189.80,433.59 187.47,431.05 185.66,428.70 184.26,426.51 183.02,424.10 182.01,421.38 181.41,418.79 181.16,416.47 181.14,414.13 181.41,411.21 181.99,408.51 182.72,406.37 183.91,403.73 185.36,401.15 187.26,398.45 189.48,395.92 191.37,394.13 193.65,392.27 196.18,390.52 199.23,388.77 201.85,387.50 205.01,386.18 208.42,384.96 212.37,383.76 215.72,382.90 219.63,382.06 223.31,381.41 227.92,380.72 231.76,380.21 235.67,379.63 241.00,378.75 245.20,378.04 250.43,377.21 254.91,376.51 259.28,375.81 263.81,375.04 269.46,374.05 274.16,373.20 278.84,372.33 284.19,371.32 289.64,370.29 295.09,369.27 300.11,368.35 305.75,367.32 311.47,366.29 317.36,365.22 323.20,364.12 330.56,362.69 336.42,361.51 341.65,360.42 347.74,359.12 353.75,357.79 359.80,356.37 365.29,355.03 371.27,353.50 378.58,351.53 384.60,349.82 390.05,348.22 396.70,346.18 403.38,344.08 409.40,342.18 415.33,340.29 421.67,338.25 428.41,336.06 435.30,333.82 440.87,332.00 447.23,329.91 454.13,327.64 460.45,325.55 466.79,323.43 473.17,321.28 480.23,318.89 487.33,316.46 493.69,314.27 501.27,311.67 509.30,308.90 515.80,306.67 522.60,304.33 530.25,301.69 537.42,299.22 543.67,297.06 550.23,294.80 558.21,292.05 565.55,289.52 572.81,287.04 580.26,284.50 587.33,282.11 596.45,279.05 603.91,276.54 611.68,273.94 619.34,271.36 626.14,269.06 633.08,266.69 641.89,263.65 649.35,261.05 655.90,258.74 662.90,256.17 669.84,253.48 675.79,251.02 680.92,248.74 686.21,246.19 691.96,243.18 696.34,240.71 700.03,238.47 704.34,235.63 708.33,232.69 712.20,229.55 715.04,226.99 718.11,223.94 721.15,220.55 723.86,217.09 725.86,214.15 727.77,210.96 729.57,207.43 731.01,204.00 731.95,201.24 732.80,197.71 733.20,194.66 733.33,191.51 733.10,187.70 732.45,183.86 731.58,180.56 730.55,177.64 729.19,174.38 727.56,170.84 725.78,167.20 724.14,164.13 722.20,160.79 719.77,156.98 717.72,153.87 715.51,150.52 713.19,147.00 710.67,143.14 708.43,139.65 705.98,135.83 703.69,132.24 701.05,128.12 698.71,124.45 696.37,120.74 693.98,116.91 691.24,112.50 688.91,108.74 686.51,104.86 684.13,101.03 681.47,96.78 678.93,92.75 676.86,89.59 674.47,86.10 672.08,82.83 669.69,79.81 667.43,77.22 664.81,74.55 661.76,71.83 658.51,69.31 654.74,66.76 651.72,64.94 648.05,62.99 644.32,61.24 640.09,59.47 636.32,58.05 632.00,56.58 627.60,55.24 622.39,53.91 618.46,53.03 613.48,52.09 608.45,51.35 602.86,50.75 598.12,50.42 593.28,50.23 588.15,50.18 581.78,50.29 576.34,50.50 570.69,50.79 565.61,51.13 559.92,51.62 553.49,52.32 547.66,53.06 542.39,53.83 536.87,54.79 530.20,56.11 524.73,57.28 519.10,58.57 512.74,60.09 505.84,61.80 500.17,63.24 494.33,64.76 488.18,66.38 480.99,68.29 474.98,69.93 469.07,71.61 462.46,73.64 456.09,75.85 449.77,78.33 443.10,81.30 437.87,83.86 432.20,86.89 427.18,89.72 421.40,93.15 416.87,95.98 412.62,98.76 408.29,101.78 403.89,105.06 400.69,107.61 397.68,110.15 394.51,112.93 391.25,115.90 388.79,118.32 386.32,120.90 383.95,123.70 381.15,127.57 379.55,130.28 378.10,133.41 376.93,136.64 376.19,139.25 375.43,142.88 375.07,145.86 374.96,149.68 375.15,152.78 375.54,155.85 376.17,159.06 377.29,162.93 378.31,165.79 379.84,169.38 381.39,172.61 383.27,176.65 384.59,179.67 386.64,184.21 388.31,187.75 390.13,191.71 391.78,195.44 393.57,199.52 395.45,203.72 396.94,207.06 398.66,210.89 400.56,215.09 402.32,219.00 403.65,222.02 405.08,225.51 406.15,228.44 407.25,231.89 408.05,235.08 408.51,237.50 408.76,240.01 408.80,242.40 408.60,245.06 408.08,247.74 407.31,250.13 406.27,252.53 404.80,255.21 402.92,257.81 401.14,259.78 398.63,262.04 395.66,264.23 392.36,266.24 389.50,267.77 385.83,269.56 381.87,271.31 377.30,273.15 372.47,274.86 368.64,276.12 363.99,277.49 359.44,278.70 353.82,280.10 349.68,281.07 344.47,282.23 339.55,283.29 333.51,284.60 328.54,285.71 323.51,286.89 317.80,288.26 311.01,289.89 304.66,291.39 299.34,292.64 293.98,293.91 288.10,295.30 282.16,296.72 276.14,298.16 270.76,299.45 264.14,301.05 257.32,302.70 251.14,304.18 245.51,305.52 238.46,307.20 231.34,308.91 224.77,310.48 218.92,311.89 212.12,313.54 205.00,315.27 198.08,316.97 192.43,318.36 185.56,320.06 177.84,321.99 170.60,323.81 164.13,325.45 156.96,327.29 149.08,329.33 142.35,331.08 136.45,332.63 130.06,334.35 123.96,336.07 118.36,337.76 114.00,339.18 109.48,340.80 104.36,342.81 100.59,344.46 97.32,346.05 94.04,347.82 90.52,349.98 87.56,352.09 84.72,354.40 82.32,356.62 79.93,359.10 77.73,361.69 75.54,364.63 74.04,366.94 72.52,369.63 71.19,372.50 70.00,375.80 69.31,378.41 68.68,381.95 68.44,384.90 68.53,388.54 68.90,391.30 69.65,394.75 70.54,398.20 71.63,401.97 72.64,404.99 74.05,408.57 75.56,411.90 77.62,415.86 79.56,419.13 81.95,422.74 84.37,425.97 87.72,429.97 91.30,433.76 95.08,437.34 98.15,440.04 101.98,443.17 106.50,446.61 110.84,449.68 115.01,452.47 119.30,455.23 124.65,458.52 129.73,461.47 135.99,464.89 140.61,467.27 146.30,470.07 151.61,472.56 157.95,475.38 163.54,477.73 169.25,480.02 175.68,482.48 182.24,484.87 188.29,486.99 194.42,489.08 201.89,491.58 208.29,493.68 217.72,496.71 224.12,498.72 230.85,500.81 238.30,503.10 245.02,505.13 251.25,506.99 258.63,509.16 266.63,511.46 273.31,513.36 280.31,515.34 287.64,517.39 295.72,519.62 313.48,524.48 320.85,526.46 328.98,528.64 336.57,530.64 344.06,532.60 351.57,534.56 360.46,536.86 367.43,538.58 374.98,540.32 382.15,541.81 389.74,543.22 395.98,544.26 402.46,545.21 408.67,546.02 415.05,546.77 419.90,547.29 425.06,547.79 430.20,548.22 435.41,548.52 440.69,548.72 444.91,548.87 449.26,549.00 453.38,549.01 457.52,548.88 462.04,548.58 466.81,548.10 470.92,547.53 475.02,546.83 479.49,545.88 484.30,544.62 487.83,543.48 491.75,542.01 496.22,540.02 499.72,538.27 504.11,535.94 507.71,533.78 510.92,531.66 514.10,529.39 517.73,526.50 520.83,523.74 524.04,520.54 526.61,517.69 529.25,514.40 531.50,511.13 533.56,507.42 534.91,504.25 536.18,500.18 536.98,496.46 537.55,492.21 537.81,488.77 537.97,484.83 538.14,480.77 538.37,476.36 538.54,472.31 538.67,468.23 538.75,464.20 538.72,458.83 538.53,455.06 538.17,450.86 537.71,446.55 537.22,442.21 536.68,437.84 536.11,433.53 535.48,429.02 534.87,424.65 534.29,420.61 533.68,416.46 533.04,412.49 532.34,408.57 531.70,405.56 530.81,402.05 529.79,398.77 528.72,395.91 527.42,392.96 526.09,390.43 524.83,388.37 523.25,386.15 521.39,383.96 519.69,382.28 517.94,380.79 515.91,379.33 513.60,377.95 511.37,376.88 509.32,376.08 507.05,375.36 504.75,374.82 502.43,374.47 500.25,374.32 498.08,374.32 495.31,374.53 493.03,374.87 490.11,375.55 487.94,376.23 485.67,377.17 483.77,378.14 481.62,379.53 480.04,380.78 478.49,382.29 477.18,383.90 475.93,385.82 475.05,387.48 474.20,389.44 473.39,391.73 472.62,394.21 472.06,396.25 471.50,398.82 471.12,401.24 470.82,404.34 470.71,407.49 470.77,410.46 470.94,413.00 471.25,416.06 471.68,419.33 472.20,422.55 472.72,425.54 473.25,428.59 473.82,432.30 474.24,436.11 474.47,439.88 474.52,443.16 474.36,446.85 473.89,450.82 473.07,454.83 472.10,458.19 470.72,461.94 468.97,465.89 467.04,469.66 465.36,472.54 463.38,475.52 461.29,478.32 458.65,481.33 456.54,483.39 453.94,485.59 451.21,487.57 447.71,489.68 444.31,491.37 441.05,492.74 437.92,493.85 434.49,494.84 430.72,495.67 427.57,496.19 424.47,496.53 421.52,496.72 417.97,496.74 415.16,496.61 412.51,496.35 409.94,495.96 407.38,495.40 405.25,494.78 403.74,494.23 402.08,493.49 400.59,492.63 399.52,491.83 398.84,491.20 398.12,490.30 397.69,489.56 397.44,488.84 397.30,488.03 397.33,487.41 397.46,486.74 397.67,486.10 398.01,485.36 398.38,484.69 398.81,484.01 399.27,483.36 399.85,482.63 400.47,481.98 401.17,481.37 401.95,480.81 402.95,480.20 403.86,479.73 404.84,479.28 406.11,478.77 407.49,478.33 408.94,477.96 410.32,477.70 411.47,477.56 412.93,477.45 414.60,477.43 416.02,477.51 417.30,477.65 418.68,477.87 420.27,478.22 421.65,478.61 422.89,479.05 424.61,479.78 425.84,480.41 427.15,481.22 428.00,481.84 428.94,482.65 429.82,483.53 430.60,484.45 431.22,485.34 431.77,486.33 432.17,487.29 432.51,488.54 432.64,489.49 432.64,490.48 432.50,491.50 432.24,492.46 431.81,493.43 431.42,494.18 430.90,494.90 430.32,495.52 429.49,496.17 428.69,496.64 427.80,497.04 426.84,497.35 425.59,497.65 424.37,497.86 423.12,498.02 421.18,498.16 419.48,498.22 417.55,498.22 415.32,498.17 413.07,498.05 410.66,497.88 408.02,497.63 404.99,497.32 402.37,497.01 399.31,496.64 396.03,496.21 392.13,495.69 388.97,495.25 385.46,494.73 381.17,494.02 377.12,493.31 373.49,492.68 369.09,491.95 365.06,491.28 359.98,490.42 356.08,489.75 351.73,488.99 346.77,488.10 341.93,487.18 337.38,486.27 332.75,485.32 327.10,484.12 320.96,482.76 316.11,481.64 310.52,480.28 305.08,478.86 300.03,477.45 294.95,475.93 289.86,474.34 283.76,472.42 279.04,470.95 273.20,469.14 268.05,467.55 261.64,465.58 256.60,464.01 250.92,462.22 245.24,460.40 239.63,458.56 235.67,457.24 230.93,455.63 226.98,454.23 222.08,452.42 218.71,451.12 214.65,449.48 211.04,447.90 207.02,445.94 204.07,444.33 200.87,442.41 197.51,440.20 194.29,437.84 191.62,435.67 188.67,432.89 186.81,430.86 184.93,428.44 183.39,426.01 182.27,423.74 181.50,421.60 180.95,419.23 180.72,416.57 180.84,414.22 181.21,412.08 181.86,409.94 182.97,407.49 184.32,405.26 185.57,403.51 187.19,401.43 189.20,399.11 191.05,397.07 193.01,395.11 195.48,392.94 198.22,390.83 200.94,389.03 203.86,387.35 207.22,385.70 210.76,384.23 214.14,383.05 217.39,382.05 221.09,381.08 225.23,380.18 229.00,379.52 232.83,379.01 236.74,378.56 240.67,378.07 244.43,377.48 247.92,376.81 251.67,375.98 256.43,374.81 260.15,373.94 264.67,372.96 268.45,372.21 272.75,371.42 277.16,370.66 282.15,369.84 286.28,369.18 290.94,368.44 295.69,367.69 301.03,366.87 305.51,366.21 310.97,365.40 316.12,364.61 321.86,363.69 327.17,362.80 332.39,361.86 337.67,360.85 343.95,359.58 348.90,358.55 354.87,357.24 360.22,356.00 366.82,354.39 371.69,353.15 377.60,351.60 383.09,350.09 390.18,348.06 395.63,346.46 401.70,344.65 407.81,342.81 413.98,340.92 419.72,339.15 425.51,337.35 431.82,335.37 438.78,333.16 444.69,331.25 450.39,329.38 456.83,327.25 463.91,324.87 469.80,322.86 475.85,320.79 483.06,318.30 490.20,315.83 495.50,313.99 502.10,311.70 508.87,309.34 516.08,306.83 522.44,304.63 529.11,302.32 535.57,300.10 543.54,297.36 550.36,295.02 557.10,292.72 563.88,290.40 572.08,287.60 578.41,285.44 585.48,283.04 592.58,280.63 600.30,278.02 607.35,275.63 614.57,273.17 623.09,270.26 630.90,267.57 638.67,264.88 646.05,262.31 651.93,260.25 658.14,258.01 664.98,255.42 670.27,253.30 675.24,251.21 679.86,249.13 685.06,246.59 689.28,244.37 692.91,242.34 696.57,240.24 700.55,237.98 704.15,235.88 707.04,234.07 710.46,231.72 713.89,229.08 716.70,226.54 719.03,224.10 721.32,221.32 723.47,218.19 725.17,215.21 726.41,212.68 727.78,209.46 729.10,205.65 730.11,202.32 730.97,198.46 731.46,194.62 731.59,191.44 731.44,188.16 730.96,184.59 730.16,180.93 729.02,177.26 727.90,174.33 726.30,170.71 724.21,166.36 722.46,162.71 720.92,159.67 718.79,155.85 716.32,151.73 714.17,148.32 711.91,144.81 709.43,140.98 706.74,136.80 704.26,132.95 702.21,129.73 699.67,125.71 696.93,121.34 694.36,117.24 692.06,113.56 689.58,109.62 686.53,104.77 683.91,100.59 681.45,96.69 678.97,92.82 676.26,88.78 673.80,85.35 671.59,82.48 669.10,79.49 666.11,76.24 663.43,73.65 660.83,71.41 657.65,68.96 654.04,66.52 650.83,64.60 647.40,62.80 643.72,61.06 638.89,59.07 634.39,57.43 630.58,56.19 626.11,54.92 621.16,53.74 616.51,52.82 612.17,52.10 607.25,51.44 601.81,50.88 596.53,50.49 591.65,50.22 586.25,50.05 580.54,50.00 574.20,50.11 569.73,50.28 564.23,50.64 556.88,51.31 551.13,51.98 545.91,52.65 539.98,53.57 533.59,54.76 527.66,56.01 522.29,57.26 516.21,58.79 509.62,60.53 504.12,62.01 498.57,63.51 492.10,65.25 485.20,67.14 478.24,69.08 471.24,71.11 465.48,72.90 459.20,75.04 452.94,77.44 446.38,80.25 441.11,82.73 435.49,85.55 429.97,88.47 423.89,91.83 419.19,94.54 414.29,97.49 409.72,100.39 405.14,103.44 400.82,106.47 396.52,109.73 393.52,112.16 390.71,114.59 387.55,117.65 384.60,120.80 382.53,123.30 380.45,126.10 378.53,129.12 377.08,131.96 375.96,134.91 375.19,137.69 374.50,141.12 374.14,144.28 374.01,147.17 374.05,150.42 374.24,154.14 374.48,157.61 374.89,160.79 375.68,164.67 376.78,168.60 377.91,171.81 379.48,175.81 381.15,179.88 382.80,183.64 384.41,187.00 386.40,190.80 388.61,194.68 390.93,198.52 393.51,202.65 395.63,206.11 397.69,209.64 399.87,213.69 401.94,218.01 403.41,221.38 404.68,224.52 405.90,227.89 407.03,231.29 407.81,233.98 408.48,236.75 408.91,239.45 409.01,242.32 408.66,245.50 408.09,247.90 407.22,250.32 405.95,252.98 404.22,255.89 402.31,258.40 400.34,260.57 397.85,262.89 394.77,265.26 391.74,267.21 388.86,268.83 385.72,270.40 381.39,272.32 377.49,273.81 373.89,274.99 369.32,276.32 363.79,277.63 359.87,278.38 355.30,279.20 350.27,280.15 345.50,281.10 341.24,281.93 336.41,282.89 330.94,284.04 326.08,285.13 321.55,286.20 315.87,287.58 310.29,288.96 305.15,290.25 299.82,291.59 293.90,293.10 287.88,294.66 282.56,296.04 277.50,297.36 271.41,298.96 265.36,300.54 259.21,302.14 254.03,303.47 248.20,304.95 240.50,306.87 234.99,308.24 227.83,310.01 220.45,311.81 214.23,313.32 208.07,314.81 201.99,316.28 194.82,318.03 187.73,319.77 181.62,321.29 174.82,322.98 167.29,324.86 160.52,326.56 153.73,328.27 147.30,329.91 140.15,331.77 134.14,333.40 129.76,334.62 124.52,336.15 118.81,337.88 114.21,339.36 110.65,340.58 106.46,342.11 102.25,343.83 98.54,345.59 95.30,347.34 91.67,349.56 87.43,352.55 84.15,355.20 81.18,357.95 78.65,360.60 76.56,363.07 74.45,365.87 72.43,368.96 70.81,371.97 69.57,374.77 68.45,377.88 67.51,381.33 66.95,384.37 66.67,387.47 66.72,390.89 67.23,394.59 68.13,398.08 69.24,401.16 70.82,404.56 72.88,408.29 74.86,411.66 77.53,416.02 79.60,419.11 81.94,422.34 84.57,425.68 88.05,429.72 90.87,432.73 94.42,436.21 97.90,439.40 102.17,443.05 105.73,445.90 109.85,449.01 114.18,452.06 119.43,455.50 124.16,458.41 128.87,461.14 134.05,463.97 139.94,466.96 145.07,469.40 150.78,471.97 156.75,474.52 163.36,477.16 169.03,479.33 174.79,481.48 181.23,483.83 188.24,486.35 194.21,488.47 200.87,490.79 207.09,492.92 214.51,495.42 220.73,497.44 227.31,499.51 234.34,501.68 242.12,504.04 248.22,505.85 255.60,508.01 262.35,509.96 270.41,512.25 276.98,514.12 284.15,516.15 292.50,518.48 300.48,520.69 320.81,526.18 328.09,528.11 334.82,529.87 342.91,531.97 350.87,534.02 358.76,536.02 365.21,537.60 371.80,539.15 378.75,540.65 385.44,541.97 390.92,543.04 397.36,544.38 403.65,545.68 409.75,546.82 414.40,547.59 420.07,548.36 425.73,548.91 431.22,549.28 436.30,549.52 441.87,549.79 447.83,549.98 452.78,550.00 457.53,549.88 462.22,549.62 467.62,549.12 472.09,548.51 477.41,547.55 482.50,546.37 486.45,545.26 490.30,544.00 494.49,542.43 498.68,540.62 502.49,538.78 506.30,536.76 509.95,534.62 513.90,532.05 517.76,529.27 520.79,526.85 523.98,524.05 527.27,520.82 530.12,517.67 532.24,515.00 534.55,511.57 536.62,507.55 537.87,504.07 538.72,500.57 539.23,496.93 539.42,492.49 539.34,488.76 539.11,484.53 538.95,480.72 538.79,476.10 538.61,472.17 538.40,468.21 538.19,464.31 537.95,459.97 537.67,455.68 537.36,451.60 537.03,447.57 536.59,442.61 536.15,438.10 535.67,433.48 535.10,428.40 534.60,424.18 534.13,420.47 533.54,416.21 532.88,412.33 532.22,409.02 531.47,405.92 530.66,403.03 529.61,399.84 528.62,397.29 527.70,395.17 526.60,392.93 525.22,390.51 523.99,388.67 522.76,387.10 521.06,385.35 519.12,383.72 516.91,382.19 514.96,381.04 512.71,379.93 509.99,378.89 507.46,378.17 505.12,377.68 502.47,377.32 499.78,377.15 497.07,377.17 494.70,377.38 491.82,377.83 489.03,378.49 486.55,379.28 484.47,380.11 482.15,381.23 479.81,382.60 477.61,384.13 475.76,385.68 474.13,387.31 472.47,389.40 471.37,391.23 470.50,393.16 469.89,395.10 469.47,397.44 469.36,399.68 469.42,401.54 469.65,403.87 469.97,406.51 470.26,409.08 470.60,411.88 471.02,414.83 471.45,417.62 471.95,420.71 472.35,423.11 472.85,426.09 473.33,429.09 473.84,432.78 474.15,435.70 474.37,438.88 474.46,442.13 474.33,446.05 473.99,449.17 473.33,452.80 472.32,456.54 470.83,460.65 469.49,463.73 467.70,467.39 465.98,470.55 463.87,473.97 462.15,476.45 460.21,478.95 457.99,481.41 455.40,483.80 453.23,485.50 450.34,487.41 447.50,488.98 444.08,490.52 441.12,491.63 437.48,492.81 433.97,493.72 430.05,494.54 426.68,495.08 422.31,495.56 418.44,495.85 413.63,496.02 409.82,496.03 405.58,495.91 400.80,495.62 396.00,495.21 391.91,494.82 386.94,494.29 382.27,493.71 376.69,492.91 372.36,492.23 367.08,491.39 362.20,490.61 355.91,489.59 349.83,488.55 344.30,487.52 338.76,486.41 333.48,485.31 328.38,484.19 322.60,482.85 316.25,481.29 311.38,480.04 305.52,478.45 300.17,476.93 293.80,475.06 288.84,473.55 282.96,471.71 277.06,469.81 270.66,467.72 265.53,466.08 259.29,464.14 253.07,462.27 246.40,460.23 241.37,458.66 235.80,456.84 230.25,454.90 225.83,453.26 220.65,451.15 216.36,449.29 212.91,447.80 209.15,446.17 204.81,444.17 201.12,442.27 197.99,440.43 195.07,438.48 191.90,436.06 189.40,433.84 187.21,431.59 185.26,429.23 183.36,426.46 181.97,424.05 180.98,421.90 180.17,419.49 179.65,416.97 179.48,414.38 179.61,412.23 180.03,409.83 180.86,407.23 181.95,404.88 183.19,402.82 184.65,400.83 186.79,398.46 188.83,396.62 190.85,395.06 193.51,393.25 196.40,391.49 199.47,389.80 203.11,387.94 205.93,386.63 209.67,385.04 213.25,383.68 217.53,382.22 221.12,381.12 225.29,379.98 229.47,378.99 234.23,378.05 238.14,377.38 242.69,376.69 247.33,375.99 252.49,375.18 256.85,374.51 261.79,373.81 266.72,373.14 272.36,372.35 278.49,371.44 284.32,370.51 290.05,369.59 294.92,368.83 300.84,367.89 306.40,366.97 312.47,365.93 317.49,365.05 323.69,363.92 329.35,362.83 336.07,361.46 341.12,360.38 346.91,359.10 353.32,357.64 359.77,356.10 365.56,354.68 371.38,353.20 378.44,351.35 384.93,349.59 390.23,348.10 396.65,346.24 403.22,344.28 410.18,342.15 416.19,340.26 422.71,338.18 428.53,336.29 435.87,333.88 441.87,331.89 448.03,329.82 454.59,327.61 461.79,325.16 468.54,322.86 474.83,320.73 481.67,318.39 489.08,315.87 495.10,313.81 501.95,311.47 508.96,309.06 516.30,306.54 523.00,304.24 529.61,301.96 536.39,299.62 545.13,296.61 551.44,294.42 558.35,292.03 565.43,289.57 573.82,286.68 580.30,284.45 587.67,281.94 594.81,279.53 602.85,276.81 610.05,274.37 617.28,271.92 624.52,269.45 633.21,266.47 640.15,264.09 649.16,260.97 656.39,258.43 663.84,255.73 670.16,253.34 676.76,250.69 681.85,248.47 686.52,246.26 691.44,243.76 696.45,241.02 700.08,238.98 704.37,236.48 708.52,233.84 712.59,230.90 715.77,228.29 718.87,225.32 721.41,222.52 723.95,219.19 725.79,216.30 727.53,213.03 728.98,209.66 730.21,205.89 731.01,202.65 731.52,199.37 731.73,195.74 731.54,191.77 731.13,188.79 730.38,185.20 729.53,181.84 728.44,177.82 727.37,174.47 725.95,170.77 724.28,167.06 722.26,162.98 720.70,159.93 718.68,156.14 716.53,152.33 714.27,148.50 712.12,144.93 709.80,141.10 707.36,137.16 704.70,132.98 702.38,129.44 699.72,125.43 697.05,121.37 694.26,117.01 691.50,112.60 688.75,108.13 686.42,104.36 683.80,100.16 680.98,95.69 678.45,91.82 676.11,88.46 673.78,85.35 670.78,81.62 668.19,78.66 665.86,76.20 662.95,73.39 659.78,70.65 657.02,68.51 654.19,66.53 651.28,64.69 647.37,62.57 643.75,60.87 640.50,59.53 636.50,58.07 632.24,56.70 628.22,55.58 624.38,54.69 620.02,53.83 615.06,53.08 610.46,52.55 606.16,52.20 601.32,51.92 596.06,51.64 591.08,51.37 585.00,51.19 580.60,51.18 575.01,51.30 569.86,51.57 563.56,52.05 558.76,52.46 553.34,52.96 547.85,53.53 541.09,54.39 536.51,55.09 529.97,56.20 523.65,57.39 517.75,58.65 511.24,60.16 505.38,61.60 499.81,63.01 493.70,64.56 486.92,66.31 480.55,67.98 475.01,69.50 468.77,71.37 462.02,73.62 455.96,75.86 450.58,78.03 444.75,80.61 438.61,83.56 433.15,86.39 427.82,89.31 422.70,92.26 417.36,95.53 413.02,98.34 408.91,101.13 405.09,103.86 400.93,107.00 397.60,109.65 394.69,112.06 391.61,114.73 388.44,117.80 385.90,120.50 383.47,123.47 381.68,125.97 379.86,128.87 378.39,131.85 377.21,135.12 376.27,139.03 375.83,142.08 375.63,145.27 375.70,148.13 375.97,151.08 376.48,154.34 377.28,158.31 377.95,161.44 378.69,164.62 379.61,168.19 380.75,172.16 381.76,175.42 382.98,179.15 384.72,183.93 386.26,187.68 387.78,191.08 389.69,195.02 391.86,199.29 393.68,202.78 395.62,206.45 397.68,210.39 399.95,214.81 401.77,218.45 403.44,221.91 405.10,225.54 406.70,229.43 407.90,232.75 408.85,235.86 409.58,238.90 410.04,241.73 410.24,244.47 410.17,246.78 409.79,249.20 408.98,251.80 408.02,253.84 406.75,255.84 405.00,257.93 402.76,260.04 400.63,261.72 398.06,263.50 395.32,265.30 392.08,267.25 389.21,268.81 385.57,270.62 382.05,272.20 377.96,273.82 374.34,275.08 370.27,276.39 366.00,277.66 360.78,279.06 356.22,280.22 351.10,281.49 346.80,282.51 342.07,283.58 336.72,284.72 331.74,285.75 326.68,286.80 321.52,287.87 315.86,289.05 310.52,290.17 305.22,291.31 299.85,292.49 293.77,293.86 288.16,295.16 282.72,296.43 275.99,298.02 269.30,299.62 263.68,300.97 258.00,302.34 251.07,304.02 244.54,305.61 239.14,306.94 232.47,308.58 225.86,310.22 219.06,311.91 213.59,313.28 206.95,314.94 199.75,316.74 193.24,318.37 187.33,319.85 180.71,321.51 172.73,323.51 165.87,325.23 159.63,326.81 153.00,328.50 145.97,330.31 139.46,332.02 133.48,333.66 128.30,335.14 122.67,336.83 117.92,338.34 113.87,339.73 109.71,341.29 105.55,343.01 101.80,344.69 98.87,346.10 95.47,347.88 91.74,350.11 88.89,352.07 86.36,354.02 83.97,356.10 81.06,358.91 78.81,361.37 76.88,363.70 74.98,366.36 73.14,369.29 71.37,372.81 70.29,375.50 69.26,378.77 68.59,381.87 68.25,384.71 68.22,387.78 68.56,391.08 69.22,394.10 70.05,396.56 71.40,399.53 73.29,402.69 75.31,405.45 77.59,408.14 80.07,410.74 82.77,413.41 85.33,415.85 87.85,418.10 90.80,420.58 92.67,422.03 95.10,423.83 97.46,425.51 99.80,427.05 101.85,428.29 104.13,429.54 106.72,430.77 109.09,431.81 111.39,432.84 113.75,434.02 115.98,435.26 118.05,436.59 119.56,437.78 121.14,439.28 122.52,440.82 123.82,442.48 125.02,444.13 126.06,445.54 127.07,446.89 128.31,448.22 129.63,449.46 130.76,450.40 132.15,451.48 133.47,452.45 135.04,453.56 136.30,454.41 137.74,455.32 139.21,456.18 140.90,457.12 142.35,457.88 143.99,458.71 145.68,459.53 147.65,460.45 149.23,461.16 150.94,461.91 152.71,462.67 154.62,463.47 156.11,464.08 157.78,464.74 159.56,465.43 161.53,466.17 163.20,466.79 165.05,467.45 166.91,468.10 168.86,468.76 170.71,469.37 172.93,470.09 174.64,470.65 176.38,471.23 178.41,471.90 180.34,472.52 181.91,473.04 183.77,473.69 185.80,474.42 187.63,475.05 189.22,475.54 191.17,476.13 193.19,476.81 194.99,477.54 196.44,478.18 198.24,478.95 200.26,479.67 202.04,480.20 203.84,480.70 205.65,481.24 207.68,481.96 209.54,482.66 211.12,483.22 213.01,483.84 214.93,484.47 216.83,485.19 218.44,485.91 219.95,486.68 221.88,487.69 223.62,488.47 225.63,489.21 227.23,489.67 229.26,490.14 231.18,490.50 233.36,490.92 235.15,491.29 237.00,491.70 239.06,492.20 241.07,492.72 243.01,493.26 244.97,493.85 247.35,494.60 249.44,495.24 251.23,495.77 253.01,496.30 254.79,496.84 256.92,497.49 258.85,498.06 260.50,498.52 262.49,499.07 264.49,499.60 266.49,500.12 268.16,500.56 270.20,501.10 272.23,501.64 274.23,502.18 275.88,502.62 277.68,503.11 279.79,503.69 281.49,504.16 283.25,504.64 284.87,505.10 286.51,505.56 287.75,505.91 288.87,506.23 289.90,506.53 290.77,506.78 291.50,507.00 292.08,507.17 292.65,507.33 293.19,507.49 293.62,507.61 293.96,507.71 294.20,507.78 294.22,507.79 294.21,507.79 294.21,507.79 294.21,507.78 294.21,507.78 294.21,507.78 294.21,507.78 294.21,507.78 294.21,507.78 294.21,507.78 294.21,507.78 294.20,507.78 294.20,507.78 294.20,507.78 294.20,507.78 294.20,507.78 294.20,507.78 294.20,507.78 294.20,507.78 294.20,507.78 294.19,507.78 294.19,507.78 294.19,507.78 294.19,507.78 294.19,507.78 294.19,507.78 294.19,507.78 294.19,507.78 294.19,507.78 294.18,507.78 294.18,507.78 294.18,507.78 294.18,507.78 294.18,507.77 294.18,507.77 294.18,507.77 294.18,507.77 294.18,507.77 294.18,507.77 294.18,507.77 294.18,507.77 294.18,507.77 294.18,507.77 294.17,507.77 294.17,507.77 294.17,507.77 294.17,507.77 294.17,507.77 294.17,507.77" />

  <!-- Start point (green) - first packet position -->
  <circle class="start-point" cx="406.51" cy="312.76" />

  <!-- End point (red) - last packet position -->
  <circle class="end-point" cx="294.17" cy="507.77" />

  <!-- Labels -->
  <text class="label" x="10" y="20">Raw Telemetry</text>
  <text class="label" x="10" y="40">Packets: 2041</text>
  <text class="label" x="10" y="60" font-size="10">X: -418-402</text>
  <text class="label" x="10" y="75" font-size="10">Z: -448-496</text>
</svg>